<svg width="1920" height="109" viewBox="0 0 1920 109" fill="none" xmlns="http://www.w3.org/2000/svg">
<g filter="url(#filter0_d_60_3565)">
<rect width="1920" height="101" fill="black" fill-opacity="0.3"/>
<path d="M251.616 48.368C251.968 48.976 252.36 49.72 252.792 50.6C253.224 51.48 253.664 52.408 254.112 53.384C254.56 54.344 255 55.328 255.432 56.336C255.88 57.328 256.288 58.248 256.656 59.096C257.024 58.248 257.424 57.328 257.856 56.336C258.288 55.328 258.728 54.344 259.176 53.384C259.624 52.408 260.064 51.48 260.496 50.6C260.928 49.72 261.32 48.976 261.672 48.368H264.408C264.552 49.584 264.688 50.88 264.816 52.256C264.944 53.616 265.056 55.016 265.152 56.456C265.264 57.88 265.36 59.32 265.44 60.776C265.536 62.216 265.616 63.624 265.68 65H262.704C262.64 63.064 262.56 61.072 262.464 59.024C262.384 56.976 262.256 54.992 262.08 53.072C261.904 53.44 261.696 53.88 261.456 54.392C261.216 54.904 260.96 55.464 260.688 56.072C260.416 56.664 260.136 57.28 259.848 57.92C259.576 58.56 259.304 59.184 259.032 59.792C258.776 60.384 258.536 60.944 258.312 61.472C258.088 61.984 257.896 62.424 257.736 62.792H255.48C255.32 62.424 255.128 61.976 254.904 61.448C254.68 60.92 254.432 60.36 254.16 59.768C253.904 59.16 253.632 58.536 253.344 57.896C253.072 57.256 252.8 56.64 252.528 56.048C252.256 55.456 252 54.904 251.76 54.392C251.52 53.864 251.312 53.424 251.136 53.072C250.96 54.992 250.824 56.976 250.728 59.024C250.648 61.072 250.576 63.064 250.512 65H247.536C247.6 63.624 247.672 62.2 247.752 60.728C247.848 59.256 247.944 57.8 248.04 56.36C248.152 54.904 248.272 53.496 248.4 52.136C248.528 50.776 248.664 49.52 248.808 48.368H251.616ZM280.411 58.712C280.411 59.704 280.267 60.608 279.979 61.424C279.691 62.24 279.283 62.936 278.755 63.512C278.227 64.088 277.587 64.536 276.835 64.856C276.099 65.176 275.283 65.336 274.387 65.336C273.491 65.336 272.675 65.176 271.939 64.856C271.203 64.536 270.571 64.088 270.043 63.512C269.515 62.936 269.099 62.24 268.795 61.424C268.507 60.608 268.363 59.704 268.363 58.712C268.363 57.72 268.507 56.824 268.795 56.024C269.099 55.208 269.515 54.512 270.043 53.936C270.587 53.36 271.227 52.92 271.963 52.616C272.699 52.296 273.507 52.136 274.387 52.136C275.267 52.136 276.075 52.296 276.811 52.616C277.563 52.92 278.203 53.36 278.731 53.936C279.259 54.512 279.667 55.208 279.955 56.024C280.259 56.824 280.411 57.72 280.411 58.712ZM277.435 58.712C277.435 57.464 277.163 56.48 276.619 55.76C276.091 55.024 275.347 54.656 274.387 54.656C273.427 54.656 272.675 55.024 272.131 55.76C271.603 56.48 271.339 57.464 271.339 58.712C271.339 59.976 271.603 60.976 272.131 61.712C272.675 62.448 273.427 62.816 274.387 62.816C275.347 62.816 276.091 62.448 276.619 61.712C277.163 60.976 277.435 59.976 277.435 58.712ZM286.337 65C285.537 63.352 284.713 61.464 283.865 59.336C283.033 57.192 282.273 54.896 281.585 52.448H284.681C284.857 53.152 285.057 53.912 285.281 54.728C285.521 55.528 285.769 56.336 286.025 57.152C286.297 57.952 286.569 58.736 286.841 59.504C287.129 60.256 287.393 60.936 287.633 61.544C287.873 60.936 288.129 60.256 288.401 59.504C288.673 58.736 288.937 57.952 289.193 57.152C289.465 56.336 289.721 55.528 289.961 54.728C290.201 53.912 290.409 53.152 290.585 52.448H293.585C292.897 54.896 292.129 57.192 291.281 59.336C290.449 61.464 289.633 63.352 288.833 65H286.337ZM298.682 65H295.778V52.448H298.682V65ZM298.994 48.776C298.994 49.32 298.818 49.752 298.466 50.072C298.114 50.392 297.698 50.552 297.218 50.552C296.722 50.552 296.298 50.392 295.946 50.072C295.594 49.752 295.418 49.32 295.418 48.776C295.418 48.216 295.594 47.776 295.946 47.456C296.298 47.136 296.722 46.976 297.218 46.976C297.698 46.976 298.114 47.136 298.466 47.456C298.818 47.776 298.994 48.216 298.994 48.776ZM301.691 58.784C301.691 57.68 301.851 56.712 302.171 55.88C302.507 55.048 302.947 54.36 303.491 53.816C304.035 53.256 304.659 52.84 305.363 52.568C306.067 52.28 306.787 52.136 307.523 52.136C309.251 52.136 310.595 52.672 311.555 53.744C312.531 54.816 313.019 56.416 313.019 58.544C313.019 58.704 313.011 58.888 312.995 59.096C312.995 59.288 312.987 59.464 312.971 59.624H304.691C304.771 60.632 305.123 61.416 305.747 61.976C306.387 62.52 307.307 62.792 308.507 62.792C309.211 62.792 309.851 62.728 310.427 62.6C311.019 62.472 311.483 62.336 311.819 62.192L312.203 64.568C312.043 64.648 311.819 64.736 311.531 64.832C311.259 64.912 310.939 64.984 310.571 65.048C310.219 65.128 309.835 65.192 309.419 65.24C309.003 65.288 308.579 65.312 308.147 65.312C307.043 65.312 306.083 65.152 305.267 64.832C304.451 64.496 303.779 64.04 303.251 63.464C302.723 62.872 302.331 62.184 302.075 61.4C301.819 60.6 301.691 59.728 301.691 58.784ZM310.115 57.488C310.115 57.088 310.059 56.712 309.947 56.36C309.835 55.992 309.667 55.68 309.443 55.424C309.235 55.152 308.971 54.944 308.651 54.8C308.347 54.64 307.979 54.56 307.547 54.56C307.099 54.56 306.707 54.648 306.371 54.824C306.035 54.984 305.747 55.2 305.507 55.472C305.283 55.744 305.107 56.056 304.979 56.408C304.851 56.76 304.763 57.12 304.715 57.488H310.115ZM319.242 62.912C320.01 62.912 320.57 62.824 320.922 62.648C321.274 62.456 321.45 62.136 321.45 61.688C321.45 61.272 321.258 60.928 320.874 60.656C320.506 60.384 319.89 60.088 319.026 59.768C318.498 59.576 318.01 59.376 317.562 59.168C317.13 58.944 316.754 58.688 316.434 58.4C316.114 58.112 315.858 57.768 315.666 57.368C315.49 56.952 315.402 56.448 315.402 55.856C315.402 54.704 315.826 53.8 316.674 53.144C317.522 52.472 318.674 52.136 320.13 52.136C320.866 52.136 321.57 52.208 322.242 52.352C322.914 52.48 323.418 52.608 323.754 52.736L323.226 55.088C322.906 54.944 322.498 54.816 322.002 54.704C321.506 54.576 320.93 54.512 320.274 54.512C319.682 54.512 319.202 54.616 318.834 54.824C318.466 55.016 318.282 55.32 318.282 55.736C318.282 55.944 318.314 56.128 318.378 56.288C318.458 56.448 318.586 56.6 318.762 56.744C318.938 56.872 319.17 57.008 319.458 57.152C319.746 57.28 320.098 57.416 320.514 57.56C321.202 57.816 321.786 58.072 322.266 58.328C322.746 58.568 323.138 58.848 323.442 59.168C323.762 59.472 323.994 59.824 324.138 60.224C324.282 60.624 324.354 61.104 324.354 61.664C324.354 62.864 323.906 63.776 323.01 64.4C322.13 65.008 320.866 65.312 319.218 65.312C318.114 65.312 317.226 65.216 316.554 65.024C315.882 64.848 315.41 64.704 315.138 64.592L315.642 62.168C316.074 62.344 316.586 62.512 317.178 62.672C317.786 62.832 318.474 62.912 319.242 62.912Z" fill="white"/>
<path d="M427.024 62.744C428.112 62.744 428.904 62.56 429.4 62.192C429.896 61.824 430.144 61.304 430.144 60.632C430.144 60.232 430.056 59.888 429.88 59.6C429.72 59.312 429.48 59.056 429.16 58.832C428.856 58.592 428.48 58.376 428.032 58.184C427.584 57.976 427.072 57.776 426.496 57.584C425.92 57.376 425.36 57.152 424.816 56.912C424.288 56.656 423.816 56.344 423.4 55.976C423 55.608 422.672 55.168 422.416 54.656C422.176 54.144 422.056 53.528 422.056 52.808C422.056 51.304 422.576 50.128 423.616 49.28C424.656 48.416 426.072 47.984 427.864 47.984C428.904 47.984 429.824 48.104 430.624 48.344C431.44 48.568 432.08 48.816 432.544 49.088L431.608 51.536C431.064 51.232 430.464 51 429.808 50.84C429.168 50.68 428.504 50.6 427.816 50.6C427 50.6 426.36 50.768 425.896 51.104C425.448 51.44 425.224 51.912 425.224 52.52C425.224 52.888 425.296 53.208 425.44 53.48C425.6 53.736 425.816 53.968 426.088 54.176C426.376 54.384 426.704 54.576 427.072 54.752C427.456 54.928 427.872 55.096 428.32 55.256C429.104 55.544 429.8 55.84 430.408 56.144C431.032 56.432 431.552 56.784 431.968 57.2C432.4 57.6 432.728 58.08 432.952 58.64C433.176 59.184 433.288 59.848 433.288 60.632C433.288 62.136 432.752 63.304 431.68 64.136C430.624 64.952 429.072 65.36 427.024 65.36C426.336 65.36 425.704 65.312 425.128 65.216C424.568 65.136 424.064 65.032 423.616 64.904C423.184 64.776 422.808 64.648 422.488 64.52C422.168 64.376 421.912 64.248 421.72 64.136L422.608 61.664C423.04 61.904 423.624 62.144 424.36 62.384C425.096 62.624 425.984 62.744 427.024 62.744ZM435.113 58.784C435.113 57.68 435.273 56.712 435.593 55.88C435.929 55.048 436.369 54.36 436.913 53.816C437.457 53.256 438.081 52.84 438.785 52.568C439.489 52.28 440.209 52.136 440.945 52.136C442.673 52.136 444.017 52.672 444.977 53.744C445.953 54.816 446.441 56.416 446.441 58.544C446.441 58.704 446.433 58.888 446.417 59.096C446.417 59.288 446.409 59.464 446.393 59.624H438.113C438.193 60.632 438.545 61.416 439.169 61.976C439.809 62.52 440.729 62.792 441.929 62.792C442.633 62.792 443.273 62.728 443.849 62.6C444.441 62.472 444.905 62.336 445.241 62.192L445.625 64.568C445.465 64.648 445.241 64.736 444.953 64.832C444.681 64.912 444.361 64.984 443.993 65.048C443.641 65.128 443.257 65.192 442.841 65.24C442.425 65.288 442.001 65.312 441.569 65.312C440.465 65.312 439.505 65.152 438.689 64.832C437.873 64.496 437.201 64.04 436.673 63.464C436.145 62.872 435.753 62.184 435.497 61.4C435.241 60.6 435.113 59.728 435.113 58.784ZM443.537 57.488C443.537 57.088 443.481 56.712 443.369 56.36C443.257 55.992 443.089 55.68 442.865 55.424C442.657 55.152 442.393 54.944 442.073 54.8C441.769 54.64 441.401 54.56 440.969 54.56C440.521 54.56 440.129 54.648 439.793 54.824C439.457 54.984 439.169 55.2 438.929 55.472C438.705 55.744 438.529 56.056 438.401 56.408C438.273 56.76 438.185 57.12 438.137 57.488H443.537ZM456.672 55.064C456.432 54.984 456.096 54.904 455.664 54.824C455.248 54.728 454.76 54.68 454.2 54.68C453.88 54.68 453.536 54.712 453.168 54.776C452.816 54.84 452.568 54.896 452.424 54.944V65H449.52V53.048C450.08 52.84 450.776 52.648 451.608 52.472C452.456 52.28 453.392 52.184 454.416 52.184C454.608 52.184 454.832 52.2 455.088 52.232C455.344 52.248 455.6 52.28 455.856 52.328C456.112 52.36 456.36 52.408 456.6 52.472C456.84 52.52 457.032 52.568 457.176 52.616L456.672 55.064ZM462.128 65H459.224V52.448H462.128V65ZM462.44 48.776C462.44 49.32 462.264 49.752 461.912 50.072C461.56 50.392 461.144 50.552 460.664 50.552C460.168 50.552 459.744 50.392 459.392 50.072C459.04 49.752 458.864 49.32 458.864 48.776C458.864 48.216 459.04 47.776 459.392 47.456C459.744 47.136 460.168 46.976 460.664 46.976C461.144 46.976 461.56 47.136 461.912 47.456C462.264 47.776 462.44 48.216 462.44 48.776ZM465.136 58.784C465.136 57.68 465.296 56.712 465.616 55.88C465.952 55.048 466.392 54.36 466.936 53.816C467.48 53.256 468.104 52.84 468.808 52.568C469.512 52.28 470.232 52.136 470.968 52.136C472.696 52.136 474.04 52.672 475 53.744C475.976 54.816 476.464 56.416 476.464 58.544C476.464 58.704 476.456 58.888 476.44 59.096C476.44 59.288 476.432 59.464 476.416 59.624H468.136C468.216 60.632 468.568 61.416 469.192 61.976C469.832 62.52 470.752 62.792 471.952 62.792C472.656 62.792 473.296 62.728 473.872 62.6C474.464 62.472 474.928 62.336 475.264 62.192L475.648 64.568C475.488 64.648 475.264 64.736 474.976 64.832C474.704 64.912 474.384 64.984 474.016 65.048C473.664 65.128 473.28 65.192 472.864 65.24C472.448 65.288 472.024 65.312 471.592 65.312C470.488 65.312 469.528 65.152 468.712 64.832C467.896 64.496 467.224 64.04 466.696 63.464C466.168 62.872 465.776 62.184 465.52 61.4C465.264 60.6 465.136 59.728 465.136 58.784ZM473.56 57.488C473.56 57.088 473.504 56.712 473.392 56.36C473.28 55.992 473.112 55.68 472.888 55.424C472.68 55.152 472.416 54.944 472.096 54.8C471.792 54.64 471.424 54.56 470.992 54.56C470.544 54.56 470.152 54.648 469.816 54.824C469.48 54.984 469.192 55.2 468.952 55.472C468.728 55.744 468.552 56.056 468.424 56.408C468.296 56.76 468.208 57.12 468.16 57.488H473.56ZM482.687 62.912C483.455 62.912 484.015 62.824 484.367 62.648C484.719 62.456 484.895 62.136 484.895 61.688C484.895 61.272 484.703 60.928 484.319 60.656C483.951 60.384 483.335 60.088 482.471 59.768C481.943 59.576 481.455 59.376 481.007 59.168C480.575 58.944 480.199 58.688 479.879 58.4C479.559 58.112 479.303 57.768 479.111 57.368C478.935 56.952 478.847 56.448 478.847 55.856C478.847 54.704 479.271 53.8 480.119 53.144C480.967 52.472 482.119 52.136 483.575 52.136C484.311 52.136 485.015 52.208 485.687 52.352C486.359 52.48 486.863 52.608 487.199 52.736L486.671 55.088C486.351 54.944 485.943 54.816 485.447 54.704C484.951 54.576 484.375 54.512 483.719 54.512C483.127 54.512 482.647 54.616 482.279 54.824C481.911 55.016 481.727 55.32 481.727 55.736C481.727 55.944 481.759 56.128 481.823 56.288C481.903 56.448 482.031 56.6 482.207 56.744C482.383 56.872 482.615 57.008 482.903 57.152C483.191 57.28 483.543 57.416 483.959 57.56C484.647 57.816 485.231 58.072 485.711 58.328C486.191 58.568 486.583 58.848 486.887 59.168C487.207 59.472 487.439 59.824 487.583 60.224C487.727 60.624 487.799 61.104 487.799 61.664C487.799 62.864 487.351 63.776 486.455 64.4C485.575 65.008 484.311 65.312 482.663 65.312C481.559 65.312 480.671 65.216 479.999 65.024C479.327 64.848 478.855 64.704 478.583 64.592L479.087 62.168C479.519 62.344 480.031 62.512 480.623 62.672C481.231 62.832 481.919 62.912 482.687 62.912Z" fill="white"/>
<path d="M584.384 65.36C583.136 65.36 582.016 65.168 581.024 64.784C580.032 64.4 579.192 63.84 578.504 63.104C577.816 62.352 577.288 61.44 576.92 60.368C576.552 59.296 576.368 58.064 576.368 56.672C576.368 55.28 576.576 54.048 576.992 52.976C577.424 51.904 578.008 51 578.744 50.264C579.48 49.512 580.344 48.944 581.336 48.56C582.328 48.176 583.392 47.984 584.528 47.984C585.216 47.984 585.84 48.04 586.4 48.152C586.96 48.248 587.448 48.36 587.864 48.488C588.28 48.616 588.624 48.752 588.896 48.896C589.168 49.04 589.36 49.144 589.472 49.208L588.584 51.68C588.2 51.44 587.648 51.216 586.928 51.008C586.224 50.784 585.456 50.672 584.624 50.672C583.904 50.672 583.232 50.8 582.608 51.056C581.984 51.296 581.44 51.664 580.976 52.16C580.528 52.656 580.176 53.28 579.92 54.032C579.664 54.784 579.536 55.656 579.536 56.648C579.536 57.528 579.632 58.336 579.824 59.072C580.032 59.808 580.344 60.448 580.76 60.992C581.176 61.52 581.704 61.936 582.344 62.24C582.984 62.528 583.752 62.672 584.648 62.672C585.72 62.672 586.592 62.568 587.264 62.36C587.936 62.136 588.456 61.928 588.824 61.736L589.64 64.208C589.448 64.336 589.184 64.464 588.848 64.592C588.528 64.72 588.144 64.848 587.696 64.976C587.248 65.088 586.744 65.176 586.184 65.24C585.624 65.32 585.024 65.36 584.384 65.36ZM592.153 65V46.856L595.057 46.376V52.592C595.377 52.48 595.745 52.384 596.161 52.304C596.593 52.224 597.017 52.184 597.433 52.184C598.441 52.184 599.273 52.328 599.929 52.616C600.601 52.888 601.137 53.28 601.537 53.792C601.937 54.288 602.217 54.888 602.377 55.592C602.553 56.296 602.641 57.08 602.641 57.944V65H599.737V58.4C599.737 57.728 599.689 57.16 599.593 56.696C599.513 56.216 599.369 55.832 599.161 55.544C598.969 55.24 598.705 55.024 598.369 54.896C598.033 54.752 597.617 54.68 597.121 54.68C596.737 54.68 596.345 54.72 595.945 54.8C595.545 54.88 595.249 54.952 595.057 55.016V65H592.153ZM610.537 62.96C611.433 62.96 612.113 62.912 612.577 62.816V59.6C612.417 59.552 612.185 59.504 611.881 59.456C611.577 59.408 611.241 59.384 610.873 59.384C610.553 59.384 610.225 59.408 609.889 59.456C609.569 59.504 609.273 59.592 609.001 59.72C608.745 59.848 608.537 60.032 608.377 60.272C608.217 60.496 608.137 60.784 608.137 61.136C608.137 61.824 608.353 62.304 608.785 62.576C609.217 62.832 609.801 62.96 610.537 62.96ZM610.297 52.136C611.257 52.136 612.065 52.256 612.721 52.496C613.377 52.736 613.897 53.072 614.281 53.504C614.681 53.936 614.961 54.464 615.121 55.088C615.297 55.696 615.385 56.368 615.385 57.104V64.712C614.937 64.808 614.257 64.92 613.345 65.048C612.449 65.192 611.433 65.264 610.297 65.264C609.545 65.264 608.857 65.192 608.233 65.048C607.609 64.904 607.073 64.672 606.625 64.352C606.193 64.032 605.849 63.616 605.593 63.104C605.353 62.592 605.233 61.96 605.233 61.208C605.233 60.488 605.369 59.88 605.641 59.384C605.929 58.888 606.313 58.488 606.793 58.184C607.273 57.864 607.825 57.64 608.449 57.512C609.089 57.368 609.753 57.296 610.441 57.296C610.761 57.296 611.097 57.32 611.449 57.368C611.801 57.4 612.177 57.464 612.577 57.56V57.08C612.577 56.744 612.537 56.424 612.457 56.12C612.377 55.816 612.233 55.552 612.025 55.328C611.833 55.088 611.569 54.904 611.233 54.776C610.913 54.648 610.505 54.584 610.009 54.584C609.337 54.584 608.721 54.632 608.161 54.728C607.601 54.824 607.145 54.936 606.793 55.064L606.433 52.712C606.801 52.584 607.337 52.456 608.041 52.328C608.745 52.2 609.497 52.136 610.297 52.136ZM618.942 52.856C619.502 52.696 620.23 52.544 621.126 52.4C622.022 52.256 623.014 52.184 624.102 52.184C625.126 52.184 625.982 52.328 626.67 52.616C627.358 52.888 627.902 53.28 628.302 53.792C628.718 54.288 629.006 54.896 629.166 55.616C629.342 56.32 629.43 57.096 629.43 57.944V65H626.526V58.4C626.526 57.728 626.478 57.16 626.382 56.696C626.302 56.216 626.158 55.832 625.95 55.544C625.758 55.24 625.486 55.024 625.134 54.896C624.798 54.752 624.382 54.68 623.886 54.68C623.518 54.68 623.134 54.704 622.734 54.752C622.334 54.8 622.038 54.84 621.846 54.872V65H618.942V52.856ZM632.981 52.856C633.541 52.696 634.269 52.544 635.165 52.4C636.061 52.256 637.053 52.184 638.141 52.184C639.165 52.184 640.021 52.328 640.709 52.616C641.397 52.888 641.941 53.28 642.341 53.792C642.757 54.288 643.045 54.896 643.205 55.616C643.381 56.32 643.469 57.096 643.469 57.944V65H640.565V58.4C640.565 57.728 640.517 57.16 640.421 56.696C640.341 56.216 640.197 55.832 639.989 55.544C639.797 55.24 639.525 55.024 639.173 54.896C638.837 54.752 638.421 54.68 637.925 54.68C637.557 54.68 637.173 54.704 636.773 54.752C636.373 54.8 636.077 54.84 635.885 54.872V65H632.981V52.856ZM646.324 58.784C646.324 57.68 646.484 56.712 646.804 55.88C647.14 55.048 647.58 54.36 648.124 53.816C648.668 53.256 649.292 52.84 649.996 52.568C650.7 52.28 651.42 52.136 652.156 52.136C653.884 52.136 655.228 52.672 656.188 53.744C657.164 54.816 657.652 56.416 657.652 58.544C657.652 58.704 657.644 58.888 657.628 59.096C657.628 59.288 657.62 59.464 657.604 59.624H649.324C649.404 60.632 649.756 61.416 650.38 61.976C651.02 62.52 651.94 62.792 653.14 62.792C653.844 62.792 654.484 62.728 655.06 62.6C655.652 62.472 656.116 62.336 656.452 62.192L656.836 64.568C656.676 64.648 656.452 64.736 656.164 64.832C655.892 64.912 655.572 64.984 655.204 65.048C654.852 65.128 654.468 65.192 654.052 65.24C653.636 65.288 653.212 65.312 652.78 65.312C651.676 65.312 650.716 65.152 649.9 64.832C649.084 64.496 648.412 64.04 647.884 63.464C647.356 62.872 646.964 62.184 646.708 61.4C646.452 60.6 646.324 59.728 646.324 58.784ZM654.748 57.488C654.748 57.088 654.692 56.712 654.58 56.36C654.468 55.992 654.3 55.68 654.076 55.424C653.868 55.152 653.604 54.944 653.284 54.8C652.98 54.64 652.612 54.56 652.18 54.56C651.732 54.56 651.34 54.648 651.004 54.824C650.668 54.984 650.38 55.2 650.14 55.472C649.916 55.744 649.74 56.056 649.612 56.408C649.484 56.76 649.396 57.12 649.348 57.488H654.748ZM665.099 65.24C664.235 65.224 663.515 65.128 662.939 64.952C662.379 64.776 661.931 64.528 661.595 64.208C661.259 63.872 661.019 63.464 660.875 62.984C660.747 62.488 660.683 61.928 660.683 61.304V46.856L663.587 46.376V60.752C663.587 61.104 663.611 61.4 663.659 61.64C663.723 61.88 663.827 62.088 663.971 62.264C664.115 62.424 664.307 62.552 664.547 62.648C664.803 62.728 665.123 62.792 665.507 62.84L665.099 65.24ZM671 62.912C671.768 62.912 672.328 62.824 672.68 62.648C673.032 62.456 673.208 62.136 673.208 61.688C673.208 61.272 673.016 60.928 672.632 60.656C672.264 60.384 671.648 60.088 670.784 59.768C670.256 59.576 669.768 59.376 669.32 59.168C668.888 58.944 668.512 58.688 668.192 58.4C667.872 58.112 667.616 57.768 667.424 57.368C667.248 56.952 667.16 56.448 667.16 55.856C667.16 54.704 667.584 53.8 668.432 53.144C669.28 52.472 670.432 52.136 671.888 52.136C672.624 52.136 673.328 52.208 674 52.352C674.672 52.48 675.176 52.608 675.512 52.736L674.984 55.088C674.664 54.944 674.256 54.816 673.76 54.704C673.264 54.576 672.688 54.512 672.032 54.512C671.44 54.512 670.96 54.616 670.592 54.824C670.224 55.016 670.04 55.32 670.04 55.736C670.04 55.944 670.072 56.128 670.136 56.288C670.216 56.448 670.344 56.6 670.52 56.744C670.696 56.872 670.928 57.008 671.216 57.152C671.504 57.28 671.856 57.416 672.272 57.56C672.96 57.816 673.544 58.072 674.024 58.328C674.504 58.568 674.896 58.848 675.2 59.168C675.52 59.472 675.752 59.824 675.896 60.224C676.04 60.624 676.112 61.104 676.112 61.664C676.112 62.864 675.664 63.776 674.768 64.4C673.888 65.008 672.624 65.312 670.976 65.312C669.872 65.312 668.984 65.216 668.312 65.024C667.64 64.848 667.168 64.704 666.896 64.592L667.4 62.168C667.832 62.344 668.344 62.512 668.936 62.672C669.544 62.832 670.232 62.912 671 62.912Z" fill="white"/>
<path d="M769.116 48.368C769.468 48.976 769.86 49.72 770.292 50.6C770.724 51.48 771.164 52.408 771.612 53.384C772.06 54.344 772.5 55.328 772.932 56.336C773.38 57.328 773.788 58.248 774.156 59.096C774.524 58.248 774.924 57.328 775.356 56.336C775.788 55.328 776.228 54.344 776.676 53.384C777.124 52.408 777.564 51.48 777.996 50.6C778.428 49.72 778.82 48.976 779.172 48.368H781.908C782.052 49.584 782.188 50.88 782.316 52.256C782.444 53.616 782.556 55.016 782.652 56.456C782.764 57.88 782.86 59.32 782.94 60.776C783.036 62.216 783.116 63.624 783.18 65H780.204C780.14 63.064 780.06 61.072 779.964 59.024C779.884 56.976 779.756 54.992 779.58 53.072C779.404 53.44 779.196 53.88 778.956 54.392C778.716 54.904 778.46 55.464 778.188 56.072C777.916 56.664 777.636 57.28 777.348 57.92C777.076 58.56 776.804 59.184 776.532 59.792C776.276 60.384 776.036 60.944 775.812 61.472C775.588 61.984 775.396 62.424 775.236 62.792H772.98C772.82 62.424 772.628 61.976 772.404 61.448C772.18 60.92 771.932 60.36 771.66 59.768C771.404 59.16 771.132 58.536 770.844 57.896C770.572 57.256 770.3 56.64 770.028 56.048C769.756 55.456 769.5 54.904 769.26 54.392C769.02 53.864 768.812 53.424 768.636 53.072C768.46 54.992 768.324 56.976 768.228 59.024C768.148 61.072 768.076 63.064 768.012 65H765.036C765.1 63.624 765.172 62.2 765.252 60.728C765.348 59.256 765.444 57.8 765.54 56.36C765.652 54.904 765.772 53.496 765.9 52.136C766.028 50.776 766.164 49.52 766.308 48.368H769.116ZM796.855 64.616C796.295 64.76 795.567 64.904 794.671 65.048C793.775 65.208 792.791 65.288 791.719 65.288C790.711 65.288 789.863 65.144 789.175 64.856C788.503 64.568 787.959 64.168 787.543 63.656C787.143 63.144 786.855 62.536 786.679 61.832C786.503 61.112 786.415 60.328 786.415 59.48V52.448H789.319V59.024C789.319 60.368 789.511 61.328 789.895 61.904C790.295 62.48 790.983 62.768 791.959 62.768C792.311 62.768 792.679 62.752 793.063 62.72C793.463 62.688 793.759 62.648 793.951 62.6V52.448H796.855V64.616ZM803.695 62.912C804.463 62.912 805.023 62.824 805.375 62.648C805.727 62.456 805.903 62.136 805.903 61.688C805.903 61.272 805.711 60.928 805.327 60.656C804.959 60.384 804.343 60.088 803.479 59.768C802.951 59.576 802.463 59.376 802.015 59.168C801.583 58.944 801.207 58.688 800.887 58.4C800.567 58.112 800.311 57.768 800.119 57.368C799.943 56.952 799.855 56.448 799.855 55.856C799.855 54.704 800.279 53.8 801.127 53.144C801.975 52.472 803.127 52.136 804.583 52.136C805.319 52.136 806.023 52.208 806.695 52.352C807.367 52.48 807.871 52.608 808.207 52.736L807.679 55.088C807.359 54.944 806.951 54.816 806.455 54.704C805.959 54.576 805.383 54.512 804.727 54.512C804.135 54.512 803.655 54.616 803.287 54.824C802.919 55.016 802.735 55.32 802.735 55.736C802.735 55.944 802.767 56.128 802.831 56.288C802.911 56.448 803.039 56.6 803.215 56.744C803.391 56.872 803.623 57.008 803.911 57.152C804.199 57.28 804.551 57.416 804.967 57.56C805.655 57.816 806.239 58.072 806.719 58.328C807.199 58.568 807.591 58.848 807.895 59.168C808.215 59.472 808.447 59.824 808.591 60.224C808.735 60.624 808.807 61.104 808.807 61.664C808.807 62.864 808.359 63.776 807.463 64.4C806.583 65.008 805.319 65.312 803.671 65.312C802.567 65.312 801.679 65.216 801.007 65.024C800.335 64.848 799.863 64.704 799.591 64.592L800.095 62.168C800.527 62.344 801.039 62.512 801.631 62.672C802.239 62.832 802.927 62.912 803.695 62.912ZM814.448 65H811.544V52.448H814.448V65ZM814.76 48.776C814.76 49.32 814.584 49.752 814.232 50.072C813.88 50.392 813.464 50.552 812.984 50.552C812.488 50.552 812.064 50.392 811.712 50.072C811.36 49.752 811.184 49.32 811.184 48.776C811.184 48.216 811.36 47.776 811.712 47.456C812.064 47.136 812.488 46.976 812.984 46.976C813.464 46.976 813.88 47.136 814.232 47.456C814.584 47.776 814.76 48.216 814.76 48.776ZM817.457 58.736C817.457 57.808 817.601 56.944 817.889 56.144C818.177 55.328 818.585 54.624 819.113 54.032C819.657 53.44 820.313 52.976 821.081 52.64C821.849 52.304 822.713 52.136 823.673 52.136C824.857 52.136 825.977 52.352 827.033 52.784L826.409 55.16C826.073 55.016 825.689 54.896 825.257 54.8C824.841 54.704 824.393 54.656 823.913 54.656C822.777 54.656 821.913 55.016 821.321 55.736C820.729 56.44 820.433 57.44 820.433 58.736C820.433 59.984 820.713 60.976 821.273 61.712C821.833 62.432 822.777 62.792 824.105 62.792C824.601 62.792 825.089 62.744 825.569 62.648C826.049 62.552 826.465 62.432 826.817 62.288L827.225 64.688C826.905 64.848 826.417 64.992 825.761 65.12C825.121 65.248 824.457 65.312 823.769 65.312C822.697 65.312 821.761 65.152 820.961 64.832C820.177 64.496 819.521 64.04 818.993 63.464C818.481 62.872 818.097 62.176 817.841 61.376C817.585 60.56 817.457 59.68 817.457 58.736Z" fill="white"/>
<path fill-rule="evenodd" clip-rule="evenodd" d="M122.595 79.5644C128.956 82.5602 137.729 80.5108 145.19 77.1173C152.15 73.9518 160.061 68.6552 164.088 61.949C166.644 57.6954 166.073 53.1211 164.064 49.0983H156.363C151.601 49.0983 149.216 51.4826 149.216 56.252V67.4847H146.155V56.252C146.155 49.4407 149.558 46.0378 156.363 46.0378H162.199C161.664 45.2978 161.089 44.5896 160.488 43.9209C158.712 41.9446 156.029 40.0763 153.717 38.3045C151.486 36.5947 149.065 35.2506 145.85 33.749C140.307 31.1593 131.508 28.7957 125.164 30.6791C121.434 31.7858 119.952 33.567 118.233 36.2382C117.873 36.2382 115.73 40.6456 114.973 45.3775C113.603 53.9493 113.255 75.1655 122.595 79.5644ZM141.553 47.5714C140.194 47.5714 139.51 46.8876 139.51 45.5285C139.51 44.162 140.194 43.4848 141.553 43.4848C142.921 43.4848 143.597 44.162 143.597 45.5285C143.597 46.8876 142.921 47.5714 141.553 47.5714ZM140.026 67.4847V54.4558L136.958 55.1733V60.3376C136.958 65.1005 134.574 67.4847 129.804 67.4847H122.658C117.889 67.4847 115.511 65.4419 115.511 61.3553C115.511 58.3858 116.543 56.6844 118.614 56.252L121.26 55.6498L133.868 52.7628C133.745 50.3204 132.386 49.0983 129.804 49.0983H122.658C119.932 49.0983 118.572 50.464 118.572 53.184H115.511C115.511 48.4221 117.889 46.0369 122.658 46.0369H129.804C134.186 46.0369 136.553 48.0487 136.91 52.0669L143.087 50.6534V67.4847H140.026ZM129.804 64.4167C132.531 64.4167 133.89 63.0577 133.89 60.3376V55.9452L119.409 59.2712C118.851 59.4663 118.572 59.8152 118.572 60.3376C118.572 63.0577 119.932 64.4167 122.658 64.4167H129.804Z" fill="url(#paint0_linear_60_3565)"/>
<path fill-rule="evenodd" clip-rule="evenodd" d="M83.1622 46.7674C87.5656 47.9303 90.5555 51.6981 90.5555 56.6441C90.5555 62.634 86.1724 66.9347 80.2029 66.9347C74.2282 66.9347 69.8096 62.634 69.8096 56.6441C69.8096 52.1502 72.296 48.6285 76.0638 47.1498V49.9057C73.9486 51.2222 72.6011 53.608 72.6011 56.6441C72.6011 61.3669 75.8605 64.5154 80.2029 64.5154C84.5453 64.5154 87.764 61.3669 87.764 56.6441C87.764 53.0802 85.9283 50.4127 83.1622 49.3184V46.7674ZM103.857 46.3921C100.329 46.3921 97.5726 47.8128 96.098 50.2703V46.5457H93.464V66.7425H96.2149V56.1448C96.2149 51.5374 98.9709 48.8496 103.349 48.8496C107.229 48.8496 109.476 51.0381 109.476 55.3002V66.7425H112.232V55.0317C112.232 49.2335 108.82 46.3921 103.857 46.3921ZM81.3775 44.0745C81.3775 43.6036 81.1893 43.1521 80.8537 42.8195C80.5232 42.4865 80.0706 42.2999 79.6028 42.2999H79.5978C79.13 42.2999 78.6774 42.4865 78.3418 42.8195C78.0113 43.1521 77.8232 43.6036 77.8232 44.0745V55.6826C77.8232 56.1534 78.0113 56.6045 78.3418 56.9375C78.6774 57.2701 79.13 57.4572 79.5978 57.4572H79.6028C80.0706 57.4572 80.5232 57.2701 80.8537 56.9375C81.1893 56.6045 81.3775 56.1534 81.3775 55.6826V44.0745Z" fill="white"/>
</g>
<defs>
<filter id="filter0_d_60_3565" x="-4" y="0" width="1928" height="109" filterUnits="userSpaceOnUse" color-interpolation-filters="sRGB">
<feFlood flood-opacity="0" result="BackgroundImageFix"/>
<feColorMatrix in="SourceAlpha" type="matrix" values="0 0 0 0 0 0 0 0 0 0 0 0 0 0 0 0 0 0 127 0" result="hardAlpha"/>
<feOffset dy="4"/>
<feGaussianBlur stdDeviation="2"/>
<feComposite in2="hardAlpha" operator="out"/>
<feColorMatrix type="matrix" values="0 0 0 0 0 0 0 0 0 0 0 0 0 0 0 0 0 0 0.25 0"/>
<feBlend mode="normal" in2="BackgroundImageFix" result="effect1_dropShadow_60_3565"/>
<feBlend mode="normal" in="SourceGraphic" in2="effect1_dropShadow_60_3565" result="shape"/>
</filter>
<linearGradient id="paint0_linear_60_3565" x1="163.282" y1="102.739" x2="137.719" y2="38.3835" gradientUnits="userSpaceOnUse">
<stop stop-color="#8E04B7"/>
<stop offset="1" stop-color="#E13C52"/>
</linearGradient>
</defs>
</svg>
